{
	"asset":{
		"generator":"Khronos glTF Blender I/O v3.5.30",
		"version":"2.0"
	},
	"extensionsUsed":[
		"KHR_materials_ior"
	],
	"scene":0,
	"scenes":[
		{
			"name":"Scene",
			"nodes":[
				0
			]
		}
	],
	"nodes":[
		{
			"mesh":0,
			"name":"BrowningHP"
		}
	],
	"materials":[
		{
			"extensions":{
				"KHR_materials_specular":{
					"specularColorFactor":[
						0,
						0,
						0
					]
				},
				"KHR_materials_ior":{
					"ior":1.4500000476837158
				}
			},
			"name":"BrowningHPMaterial",
			"normalTexture":{
				"index":0,
				"scale":0.30000001192092896
			},
			"pbrMetallicRoughness":{
				"baseColorTexture":{
					"index":1
				},
				"metallicRoughnessTexture":{
					"index":2
				}
			}
		}
	],
	"meshes":[
		{
			"name":"BrowningMesh",
			"primitives":[
				{
					"attributes":{
						"POSITION":0,
						"TEXCOORD_0":1,
						"NORMAL":2,
						"TANGENT":3
					},
					"indices":4,
					"material":0
				}
			]
		}
	],
	"textures":[
		{
			"sampler":0,
			"source":0
		},
		{
			"sampler":0,
			"source":1
		},
		{
			"sampler":0,
			"source":2
		}
	],
	"images":[
		{
			"mimeType":"image/jpeg",
			"name":"BrowningHP_Normal",
			"uri":"BrowningHP_Normal.jpg"
		},
		{
			"mimeType":"image/jpeg",
			"name":"BrowningHP_Albedo",
			"uri":"BrowningHP_Albedo.jpg"
		},
		{
			"mimeType":"image/jpeg",
			"name":"BrowningHP_MetallicRoughness",
			"uri":"BrowningHP_MetallicRoughness.jpg"
		}
	],
	"accessors":[
		{
			"bufferView":0,
			"componentType":5126,
			"count":13944,
			"max":[
				0.05077487230300903,
				0.26828762888908386,
				0.5559526681900024
			],
			"min":[
				-0.049116551876068115,
				-0.1666490137577057,
				-0.13021594285964966
			],
			"type":"VEC3"
		},
		{
			"bufferView":1,
			"componentType":5126,
			"count":13944,
			"type":"VEC2"
		},
		{
			"bufferView":2,
			"componentType":5126,
			"count":13944,
			"type":"VEC3"
		},
		{
			"bufferView":3,
			"componentType":5126,
			"count":13944,
			"type":"VEC4"
		},
		{
			"bufferView":4,
			"componentType":5123,
			"count":14022,
			"type":"SCALAR"
		}
	],
	"bufferViews":[
		{
			"buffer":0,
			"byteLength":167328,
			"byteOffset":0,
			"target":34962
		},
		{
			"buffer":0,
			"byteLength":111552,
			"byteOffset":167328,
			"target":34962
		},
		{
			"buffer":0,
			"byteLength":167328,
			"byteOffset":278880,
			"target":34962
		},
		{
			"buffer":0,
			"byteLength":223104,
			"byteOffset":446208,
			"target":34962
		},
		{
			"buffer":0,
			"byteLength":28044,
			"byteOffset":669312,
			"target":34963
		}
	],
	"samplers":[
		{
			"magFilter":9729,
			"minFilter":9987
		}
	],
	"buffers":[
		{
			"byteLength":697356,
			"uri":"BrowningHP.bin"
		}
	]
}
